<svg width="244" height="264" viewBox="0 0 244 264" fill="none" xmlns="http://www.w3.org/2000/svg">
<g filter="url(#filter0_dddddiii_2702_507)">
<rect x="22" width="200" height="200" rx="32" fill="white"/>
</g>
<path d="M122.261 164.641C159.141 164.641 189.039 134.743 189.039 97.8623C189.039 60.9817 159.141 31.084 122.261 31.084C85.3801 31.084 55.4824 60.9817 55.4824 97.8623C55.4824 134.743 85.3801 164.641 122.261 164.641Z" fill="#0B3D91"/>
<path d="M118.321 44.6594C118.734 44.6594 119.07 44.3242 119.07 43.9107C119.07 43.4973 118.734 43.1621 118.321 43.1621C117.907 43.1621 117.572 43.4973 117.572 43.9107C117.572 44.3242 117.907 44.6594 118.321 44.6594Z" fill="white"/>
<path d="M126.003 45.6594C126.416 45.6594 126.751 45.3242 126.751 44.9107C126.751 44.4973 126.416 44.1621 126.003 44.1621C125.589 44.1621 125.254 44.4973 125.254 44.9107C125.254 45.3242 125.589 45.6594 126.003 45.6594Z" fill="white"/>
<path d="M136.085 59.2317C136.498 59.2317 136.833 58.8965 136.833 58.483C136.833 58.0696 136.498 57.7344 136.085 57.7344C135.671 57.7344 135.336 58.0696 135.336 58.483C135.336 58.8965 135.671 59.2317 136.085 59.2317Z" fill="white"/>
<path d="M80.7857 129.105C81.1992 129.105 81.5344 128.77 81.5344 128.356C81.5344 127.943 81.1992 127.607 80.7857 127.607C80.3723 127.607 80.0371 127.943 80.0371 128.356C80.0371 128.77 80.3723 129.105 80.7857 129.105Z" fill="white"/>
<path d="M82.7311 135.093C83.1445 135.093 83.4797 134.758 83.4797 134.344C83.4797 133.931 83.1445 133.596 82.7311 133.596C82.3176 133.596 81.9824 133.931 81.9824 134.344C81.9824 134.758 82.3176 135.093 82.7311 135.093Z" fill="white"/>
<path d="M73.4493 129.817C73.759 129.817 74.01 129.566 74.01 129.256C74.01 128.946 73.759 128.695 73.4493 128.695C73.1397 128.695 72.8887 128.946 72.8887 129.256C72.8887 129.566 73.1397 129.817 73.4493 129.817Z" fill="white"/>
<path d="M103.894 141.584C104.205 141.584 104.457 141.332 104.457 141.021C104.457 140.711 104.205 140.459 103.894 140.459C103.584 140.459 103.332 140.711 103.332 141.021C103.332 141.332 103.584 141.584 103.894 141.584Z" fill="white"/>
<path d="M151.643 131.662C151.952 131.662 152.203 131.411 152.203 131.102C152.203 130.792 151.952 130.541 151.643 130.541C151.333 130.541 151.082 130.792 151.082 131.102C151.082 131.411 151.333 131.662 151.643 131.662Z" fill="white"/>
<path d="M165.521 116.593C165.832 116.593 166.084 116.342 166.084 116.031C166.084 115.721 165.832 115.469 165.521 115.469C165.211 115.469 164.959 115.721 164.959 116.031C164.959 116.342 165.211 116.593 165.521 116.593Z" fill="white"/>
<path d="M97.5079 63.424C97.8175 63.424 98.0686 63.173 98.0686 62.8634C98.0686 62.5537 97.8175 62.3027 97.5079 62.3027C97.1983 62.3027 96.9473 62.5537 96.9473 62.8634C96.9473 63.173 97.1983 63.424 97.5079 63.424Z" fill="white"/>
<path d="M112.779 52.2072C113.089 52.2072 113.34 51.9562 113.34 51.6466C113.34 51.3369 113.089 51.0859 112.779 51.0859C112.47 51.0859 112.219 51.3369 112.219 51.6466C112.219 51.9562 112.47 52.2072 112.779 52.2072Z" fill="white"/>
<path d="M111.117 51.1115C111.427 51.1115 111.678 50.8605 111.678 50.5509C111.678 50.2412 111.427 49.9902 111.117 49.9902C110.808 49.9902 110.557 50.2412 110.557 50.5509C110.557 50.8605 110.808 51.1115 111.117 51.1115Z" fill="white"/>
<path d="M109.625 50.0119C109.935 50.0119 110.186 49.7609 110.186 49.4513C110.186 49.1416 109.935 48.8906 109.625 48.8906C109.315 48.8906 109.064 49.1416 109.064 49.4513C109.064 49.7609 109.315 50.0119 109.625 50.0119Z" fill="white"/>
<path d="M99.9005 66.3205C100.21 66.3205 100.461 66.0695 100.461 65.7599C100.461 65.4502 100.21 65.1992 99.9005 65.1992C99.5909 65.1992 99.3398 65.4502 99.3398 65.7599C99.3398 66.0695 99.5909 66.3205 99.9005 66.3205Z" fill="white"/>
<path d="M122.397 37.135C122.706 37.135 122.957 36.884 122.957 36.5743C122.957 36.2647 122.706 36.0137 122.397 36.0137C122.087 36.0137 121.836 36.2647 121.836 36.5743C121.836 36.884 122.087 37.135 122.397 37.135Z" fill="white"/>
<path d="M126.09 53.3068C126.4 53.3068 126.651 53.0558 126.651 52.7462C126.651 52.4366 126.4 52.1855 126.09 52.1855C125.78 52.1855 125.529 52.4366 125.529 52.7462C125.529 53.0558 125.78 53.3068 126.09 53.3068Z" fill="white"/>
<path d="M120.266 50.1506C120.575 50.1506 120.826 49.8996 120.826 49.5899C120.826 49.2803 120.575 49.0293 120.266 49.0293C119.956 49.0293 119.705 49.2803 119.705 49.5899C119.705 49.8996 119.956 50.1506 120.266 50.1506Z" fill="white"/>
<path d="M110.283 54.4416C110.593 54.4416 110.844 54.1906 110.844 53.881C110.844 53.5713 110.593 53.3203 110.283 53.3203C109.974 53.3203 109.723 53.5713 109.723 53.881C109.723 54.1906 109.974 54.4416 110.283 54.4416Z" fill="white"/>
<path d="M154.303 146.471C154.612 146.471 154.863 146.22 154.863 145.91C154.863 145.601 154.612 145.35 154.303 145.35C153.993 145.35 153.742 145.601 153.742 145.91C153.742 146.22 153.993 146.471 154.303 146.471Z" fill="white"/>
<path d="M79.8397 132.711C80.1502 132.711 80.402 132.459 80.402 132.148C80.402 131.838 80.1502 131.586 79.8397 131.586C79.5291 131.586 79.2773 131.838 79.2773 132.148C79.2773 132.459 79.5291 132.711 79.8397 132.711Z" fill="white"/>
<path d="M118.867 139.949C119.178 139.949 119.429 139.697 119.429 139.387C119.429 139.076 119.178 138.824 118.867 138.824C118.556 138.824 118.305 139.076 118.305 139.387C118.305 139.697 118.556 139.949 118.867 139.949Z" fill="white"/>
<path d="M91.4529 132.265C91.7635 132.265 92.0152 132.013 92.0152 131.703C92.0152 131.392 91.7635 131.141 91.4529 131.141C91.1424 131.141 90.8906 131.392 90.8906 131.703C90.8906 132.013 91.1424 132.265 91.4529 132.265Z" fill="white"/>
<path d="M96.3065 140.185C96.617 140.185 96.8688 139.933 96.8688 139.623C96.8688 139.312 96.617 139.061 96.3065 139.061C95.9959 139.061 95.7441 139.312 95.7441 139.623C95.7441 139.933 95.9959 140.185 96.3065 140.185Z" fill="white"/>
<path d="M132.045 135.194C132.355 135.194 132.606 134.943 132.606 134.633C132.606 134.323 132.355 134.072 132.045 134.072C131.735 134.072 131.484 134.323 131.484 134.633C131.484 134.943 131.735 135.194 132.045 135.194Z" fill="white"/>
<path d="M151.746 124.074C152.056 124.074 152.307 123.823 152.307 123.514C152.307 123.204 152.056 122.953 151.746 122.953C151.437 122.953 151.186 123.204 151.186 123.514C151.186 123.823 151.437 124.074 151.746 124.074Z" fill="white"/>
<path d="M166.682 130.901C166.991 130.901 167.242 130.65 167.242 130.34C167.242 130.03 166.991 129.779 166.682 129.779C166.372 129.779 166.121 130.03 166.121 130.34C166.121 130.65 166.372 130.901 166.682 130.901Z" fill="white"/>
<path d="M171.768 134.158C172.077 134.158 172.328 133.907 172.328 133.598C172.328 133.288 172.077 133.037 171.768 133.037C171.458 133.037 171.207 133.288 171.207 133.598C171.207 133.907 171.458 134.158 171.768 134.158Z" fill="white"/>
<path d="M172.609 125.278C172.919 125.278 173.17 125.027 173.17 124.717C173.17 124.407 172.919 124.156 172.609 124.156C172.3 124.156 172.049 124.407 172.049 124.717C172.049 125.027 172.3 125.278 172.609 125.278Z" fill="white"/>
<path d="M98.3439 112.699C98.6535 112.699 98.9045 112.448 98.9045 112.139C98.9045 111.829 98.6535 111.578 98.3439 111.578C98.0342 111.578 97.7832 111.829 97.7832 112.139C97.7832 112.448 98.0342 112.699 98.3439 112.699Z" fill="white"/>
<path d="M98.5553 125.763C98.9687 125.763 99.3039 125.428 99.3039 125.014C99.3039 124.601 98.9687 124.266 98.5553 124.266C98.1418 124.266 97.8066 124.601 97.8066 125.014C97.8066 125.428 98.1418 125.763 98.5553 125.763Z" fill="white"/>
<path d="M103.046 135.243C103.459 135.243 103.794 134.908 103.794 134.495C103.794 134.081 103.459 133.746 103.046 133.746C102.632 133.746 102.297 134.081 102.297 134.495C102.297 134.908 102.632 135.243 103.046 135.243Z" fill="white"/>
<path d="M156.848 125.361C157.262 125.361 157.597 125.025 157.597 124.612C157.597 124.198 157.262 123.863 156.848 123.863C156.435 123.863 156.1 124.198 156.1 124.612C156.1 125.025 156.435 125.361 156.848 125.361Z" fill="white"/>
<path d="M176.212 124.261C176.625 124.261 176.96 123.926 176.96 123.512C176.96 123.099 176.625 122.764 176.212 122.764C175.798 122.764 175.463 123.099 175.463 123.512C175.463 123.926 175.798 124.261 176.212 124.261Z" fill="white"/>
<path d="M166.63 120.171C167.043 120.171 167.378 119.836 167.378 119.422C167.378 119.009 167.043 118.674 166.63 118.674C166.216 118.674 165.881 119.009 165.881 119.422C165.881 119.836 166.216 120.171 166.63 120.171Z" fill="white"/>
<path d="M156.848 120.573C157.262 120.573 157.597 120.238 157.597 119.825C157.597 119.411 157.262 119.076 156.848 119.076C156.435 119.076 156.1 119.411 156.1 119.825C156.1 120.238 156.435 120.573 156.848 120.573Z" fill="white"/>
<path d="M136.669 43.4404L138.531 43.2624L136.673 43.1576C136.614 42.7982 136.326 42.5171 135.964 42.4705L135.786 40.6172L135.679 42.4855C135.343 42.5603 135.085 42.8415 135.044 43.1908L133.141 43.3639L135.057 43.467C135.127 43.7881 135.387 44.0393 135.713 44.0992L135.886 46.009L135.987 44.1025C136.331 44.0443 136.604 43.7798 136.669 43.4404Z" fill="white"/>
<path d="M105.251 64.1689L107.113 63.9909L105.255 63.8861C105.198 63.5267 104.909 63.2456 104.546 63.199L104.368 61.3457L104.263 63.214C103.925 63.2888 103.667 63.57 103.626 63.9193L101.723 64.0924L103.639 64.1955C103.709 64.5166 103.969 64.7678 104.295 64.8277L104.468 66.7375L104.571 64.831C104.915 64.7745 105.188 64.5083 105.251 64.1689Z" fill="white"/>
<path d="M174.851 118.964L176.713 118.786L174.854 118.681C174.798 118.322 174.508 118.041 174.146 117.994L173.968 116.141L173.863 118.009C173.527 118.084 173.269 118.365 173.227 118.714L171.324 118.887L173.241 118.99C173.311 119.312 173.57 119.563 173.896 119.623L174.069 121.532L174.172 119.626C174.513 119.569 174.786 119.305 174.851 118.964Z" fill="white"/>
<path d="M98.9602 147.616L100.822 147.438L98.9635 147.334C98.9053 146.974 98.6175 146.693 98.2548 146.647L98.0768 144.795L97.972 146.662C97.6343 146.736 97.3764 147.018 97.3348 147.367L95.4316 147.54L97.3482 147.643C97.418 147.964 97.6776 148.217 98.0036 148.275L98.1766 150.185L98.2798 148.279C98.6225 148.222 98.897 147.956 98.9602 147.616Z" fill="white"/>
<path d="M168.933 133.642L170.795 133.464L168.936 133.359C168.88 132.999 168.59 132.718 168.228 132.672L168.05 130.818L167.945 132.685C167.609 132.76 167.351 133.041 167.309 133.39L165.406 133.563L167.323 133.667C167.393 133.988 167.652 134.239 167.978 134.299L168.151 136.209L168.254 134.302C168.595 134.247 168.87 133.981 168.933 133.642Z" fill="white"/>
<path d="M138.096 81.8662C130.332 84.884 122.759 87.5775 116.369 89.5772C103.384 93.6431 67.8574 104.65 46.3965 118.524L48.1932 119.223C61.2694 111.837 69.7689 109.516 77.939 106.946C86.8228 104.151 115.542 97.4295 128.547 93.7695C132.941 92.5335 138.086 90.9147 143.536 88.945C142.269 87.1765 140.931 85.4031 139.524 83.633C139.053 83.0358 138.575 82.4468 138.096 81.8662ZM147.582 94.9407C145.702 96.2101 144.127 97.2232 143.024 97.8621C136.635 101.555 105.491 122.817 98.4051 127.708C91.3197 132.599 71.6538 151.165 65.8644 156.555L65.6647 158.749C84.3307 141.98 90.1867 137.844 97.6065 132.2C106.79 125.212 125.787 112.286 132.243 108.143C138.416 104.184 143.982 100.542 148.978 97.2099C148.896 97.0735 148.815 96.9371 148.733 96.799C148.357 96.1818 147.973 95.5629 147.582 94.9407ZM176.761 64.1235C167.667 69.4538 153.335 75.8871 139.43 81.3455C139.763 81.7531 140.094 82.164 140.424 82.5783C141.977 84.5347 143.443 86.5044 144.822 88.4758C155.752 84.4498 167.745 79.0464 177.261 72.5066C172.728 76.8021 157.74 88.0034 148.602 94.247C149.073 95.0139 149.529 95.7809 149.969 96.5445C163.814 87.2797 173.131 80.4604 178.559 75.9004C186.045 69.6119 203.114 55.5375 209.603 36.6719C198.222 51.1472 184.766 59.4304 176.761 64.1235Z" fill="#FC3D21"/>
<path d="M113.669 114.396C112.197 112.543 110.161 110.061 108.632 108.136C106.587 105.562 104.696 102.962 102.962 100.365C102.396 100.507 101.832 100.648 101.269 100.789C103.361 104.055 105.685 107.316 108.218 110.503C110.067 112.833 111.749 114.707 112.611 115.874C112.786 116.11 113.132 116.632 113.599 117.328C114.138 116.962 114.682 116.592 115.231 116.22C114.701 115.642 114.177 115.035 113.669 114.396ZM124.416 124.152C123.207 123.007 120.274 121.096 117.221 118.228C116.547 118.69 115.867 119.159 115.185 119.632C117.156 122.41 119.841 125.822 121.944 126.817C125.112 128.318 125.965 125.619 124.416 124.152ZM140.426 82.5776C122.971 60.6077 101.648 48.538 92.4546 55.843C85.3142 61.516 88.2456 78.0958 98.0876 95.5124C98.5967 95.3377 99.1008 95.1664 99.5999 94.9967C89.6663 78.0276 86.9479 62.258 93.6823 56.9061C102.145 50.1817 122.58 62.2979 139.529 83.6307C143.037 88.046 146.122 92.4779 148.734 96.7984C158.735 113.352 161.805 128.321 154.894 134.432C152.78 136.301 146.318 137.035 137.854 133.225C137.735 133.373 137.925 133.774 138.073 133.873C145.38 136.811 152.379 137.93 155.912 135.124C164.404 128.376 157.88 104.548 140.426 82.5776Z" fill="white"/>
<path d="M65.5645 85.1855H76.7441L86.127 101.107C86.127 101.107 86.127 89.5775 86.127 88.6792C86.127 87.2817 84.3552 85.46 83.7314 85.1855C84.48 85.1855 91.0181 85.1855 91.4673 85.1855C90.9931 85.3103 89.4709 87.157 89.4709 88.6792C89.4709 89.4278 89.4709 106.147 89.4709 106.946C89.4709 108.069 91.0929 109.616 91.8665 110.215H81.0862L71.5535 94.2191C71.5535 94.2191 71.5535 106.147 71.5535 106.796C71.5535 108.044 72.7763 109.242 74.049 110.265H65.814C66.9869 109.766 68.1098 108.194 68.2096 106.946C68.3095 105.698 68.2096 89.6025 68.2096 88.9038C68.2096 87.3815 66.7373 86.1338 65.5645 85.1855Z" fill="white"/>
<path d="M167.831 110.215H182.704C181.88 110.015 180.957 109.042 180.458 107.744C179.959 106.447 172.073 85.1855 172.073 85.1855H166.418C164.815 86.3401 163.096 87.5579 161.261 88.8406C161.256 88.8871 161.251 88.9337 161.243 88.9786C160.997 90.4759 156.571 106.503 156.302 107.295C155.928 108.393 154.006 109.616 153.232 110.265H161.243C160.444 109.367 159.795 108.493 159.945 107.495C160.095 106.497 160.544 104.5 160.544 104.5H168.829C169.203 105.499 169.483 106.395 169.628 107.245C169.802 108.268 168.754 109.416 167.831 110.215ZM161.293 101.306L164.088 92.1728L167.781 101.306H161.293ZM160.033 86.0972C160.444 85.7944 160.857 85.49 161.268 85.1855H159.097C159.313 85.3852 159.671 85.6996 160.033 86.0972Z" fill="white"/>
<path d="M103.146 107.495C103.296 106.497 103.745 104.5 103.745 104.5H112.03C112.405 105.499 112.684 106.395 112.829 107.245C113.003 108.268 111.955 109.416 111.032 110.215H124.126C124.399 110.032 124.67 109.849 124.942 109.668C124.434 109.218 123.967 108.545 123.659 107.744C123.16 106.447 115.274 85.1855 115.274 85.1855H102.298C102.922 85.7595 104.719 87.3067 104.444 88.9786C104.199 90.4759 99.7725 106.503 99.503 107.295C99.1287 108.393 97.2072 109.616 96.4336 110.265H104.444C103.645 109.367 102.997 108.493 103.146 107.495ZM107.289 92.1728L110.982 101.306H104.494L107.289 92.1728Z" fill="white"/>
<path d="M148.381 97.609C145.938 99.2361 143.361 100.935 140.646 102.708C141.864 103.299 142.834 104.041 142.927 104.999C143.1 106.799 139.483 107.669 136.214 107.295C135.561 107.22 134.918 107.049 134.306 106.819C133.627 107.256 132.942 107.697 132.247 108.143C131.54 108.597 130.681 109.156 129.701 109.802V112.385C130.35 111.113 131.769 109.973 132.87 109.915C133.345 109.89 134.992 111.412 141.779 111.038C145.073 110.857 151.437 107.345 151.337 103.302C151.277 100.913 150.029 99.0498 148.381 97.609ZM129.7 103.851V106.483C130.3 106.082 130.892 105.688 131.473 105.303C130.56 104.668 129.913 104.074 129.7 103.851ZM146.06 95.9571C145.428 95.5827 144.787 95.255 144.173 94.9655C140.979 93.4683 137.635 93.1938 136.936 91.1724C136.444 89.7467 137.835 88.4274 141.229 88.4774C144.622 88.5273 147.767 90.5486 148.615 91.2723V84.834C148.366 85.0835 147.271 86.3396 146.269 86.1316C144.348 85.7324 141.079 85.2116 137.336 85.2333C133.043 85.2582 129.35 88.5755 129.225 92.7695C129.051 98.6338 133.742 100.231 136.387 101.154C136.66 101.249 136.971 101.351 137.309 101.459C139.846 99.8084 141.852 98.5374 143.027 97.8603C143.816 97.4061 144.849 96.7539 146.06 95.9571Z" fill="white"/>
<defs>
<filter id="filter0_dddddiii_2702_507" x="0.666666" y="-53.3333" width="242.667" height="317.333" filterUnits="userSpaceOnUse" color-interpolation-filters="sRGB">
<feFlood flood-opacity="0" result="BackgroundImageFix"/>
<feColorMatrix in="SourceAlpha" type="matrix" values="0 0 0 0 0 0 0 0 0 0 0 0 0 0 0 0 0 0 127 0" result="hardAlpha"/>
<feOffset dy="42.6667"/>
<feGaussianBlur stdDeviation="10.6667"/>
<feComposite in2="hardAlpha" operator="out"/>
<feColorMatrix type="matrix" values="0 0 0 0 0 0 0 0 0 0 0 0 0 0 0 0 0 0 0.09 0"/>
<feBlend mode="normal" in2="BackgroundImageFix" result="effect1_dropShadow_2702_507"/>
<feColorMatrix in="SourceAlpha" type="matrix" values="0 0 0 0 0 0 0 0 0 0 0 0 0 0 0 0 0 0 127 0" result="hardAlpha"/>
<feOffset dy="21.3333"/>
<feGaussianBlur stdDeviation="5.33333"/>
<feComposite in2="hardAlpha" operator="out"/>
<feColorMatrix type="matrix" values="0 0 0 0 0 0 0 0 0 0 0 0 0 0 0 0 0 0 0.09 0"/>
<feBlend mode="normal" in2="effect1_dropShadow_2702_507" result="effect2_dropShadow_2702_507"/>
<feColorMatrix in="SourceAlpha" type="matrix" values="0 0 0 0 0 0 0 0 0 0 0 0 0 0 0 0 0 0 127 0" result="hardAlpha"/>
<feOffset dy="10.6667"/>
<feGaussianBlur stdDeviation="2.66667"/>
<feComposite in2="hardAlpha" operator="out"/>
<feColorMatrix type="matrix" values="0 0 0 0 0 0 0 0 0 0 0 0 0 0 0 0 0 0 0.09 0"/>
<feBlend mode="normal" in2="effect2_dropShadow_2702_507" result="effect3_dropShadow_2702_507"/>
<feColorMatrix in="SourceAlpha" type="matrix" values="0 0 0 0 0 0 0 0 0 0 0 0 0 0 0 0 0 0 127 0" result="hardAlpha"/>
<feOffset dy="5.33333"/>
<feGaussianBlur stdDeviation="1.33333"/>
<feComposite in2="hardAlpha" operator="out"/>
<feColorMatrix type="matrix" values="0 0 0 0 0 0 0 0 0 0 0 0 0 0 0 0 0 0 0.09 0"/>
<feBlend mode="normal" in2="effect3_dropShadow_2702_507" result="effect4_dropShadow_2702_507"/>
<feColorMatrix in="SourceAlpha" type="matrix" values="0 0 0 0 0 0 0 0 0 0 0 0 0 0 0 0 0 0 127 0" result="hardAlpha"/>
<feOffset dy="2.66667"/>
<feGaussianBlur stdDeviation="0.666667"/>
<feComposite in2="hardAlpha" operator="out"/>
<feColorMatrix type="matrix" values="0 0 0 0 0 0 0 0 0 0 0 0 0 0 0 0 0 0 0.06 0"/>
<feBlend mode="normal" in2="effect4_dropShadow_2702_507" result="effect5_dropShadow_2702_507"/>
<feBlend mode="normal" in="SourceGraphic" in2="effect5_dropShadow_2702_507" result="shape"/>
<feColorMatrix in="SourceAlpha" type="matrix" values="0 0 0 0 0 0 0 0 0 0 0 0 0 0 0 0 0 0 127 0" result="hardAlpha"/>
<feOffset dy="-105.333"/>
<feGaussianBlur stdDeviation="26.6667"/>
<feComposite in2="hardAlpha" operator="arithmetic" k2="-1" k3="1"/>
<feColorMatrix type="matrix" values="0 0 0 0 0 0 0 0 0 0 0 0 0 0 0 0 0 0 0.1 0"/>
<feBlend mode="normal" in2="shape" result="effect6_innerShadow_2702_507"/>
<feColorMatrix in="SourceAlpha" type="matrix" values="0 0 0 0 0 0 0 0 0 0 0 0 0 0 0 0 0 0 127 0" result="hardAlpha"/>
<feOffset dy="-48"/>
<feGaussianBlur stdDeviation="20"/>
<feComposite in2="hardAlpha" operator="arithmetic" k2="-1" k3="1"/>
<feColorMatrix type="matrix" values="0 0 0 0 0 0 0 0 0 0 0 0 0 0 0 0 0 0 0.15 0"/>
<feBlend mode="normal" in2="effect6_innerShadow_2702_507" result="effect7_innerShadow_2702_507"/>
<feColorMatrix in="SourceAlpha" type="matrix" values="0 0 0 0 0 0 0 0 0 0 0 0 0 0 0 0 0 0 127 0" result="hardAlpha"/>
<feOffset dy="-30.6667"/>
<feGaussianBlur stdDeviation="16.6667"/>
<feComposite in2="hardAlpha" operator="arithmetic" k2="-1" k3="1"/>
<feColorMatrix type="matrix" values="0 0 0 0 0 0 0 0 0 0 0 0 0 0 0 0 0 0 0.17 0"/>
<feBlend mode="normal" in2="effect7_innerShadow_2702_507" result="effect8_innerShadow_2702_507"/>
</filter>
</defs>
</svg>
