<svg width="46" height="54" viewBox="0 0 46 54" fill="none" xmlns="http://www.w3.org/2000/svg">
<path fill-rule="evenodd" clip-rule="evenodd" d="M6.22238 0L21.3516 13.9393V13.9361V0.0321643H24.2967V14.0017L39.4936 0V15.8929H45.733V38.8169H39.5128V52.9687L24.2967 39.6002V53.1222H21.3516V39.8207L6.23953 53.131V38.8169H0V15.8929H6.22238V0ZM19.1314 18.802H2.94505V35.9078H6.23583V30.512L19.1314 18.802ZM9.18443 31.8028V46.6396L21.3516 35.9231V20.7515L9.18443 31.8028ZM24.3814 35.7814V20.7372L36.5521 31.7891V38.8169H36.5677V46.4881L24.3814 35.7814ZM39.5128 35.9078H42.7879V18.802H26.7222L39.5128 30.3908V35.9078ZM36.5486 15.8929V6.69153L26.5616 15.8929H36.5486ZM19.1542 15.8929H9.16745V6.69153L19.1542 15.8929Z" fill="white"/>
</svg>
